<?xml version="1.0" encoding="utf-8"?>
<!-- Generator: Adobe Illustrator 16.0.0, SVG Export Plug-In . SVG Version: 6.00 Build 0)  -->
<!DOCTYPE svg PUBLIC "-//W3C//DTD SVG 1.1//EN" "http://www.w3.org/Graphics/SVG/1.1/DTD/svg11.dtd">
<svg version="1.1" xmlns="http://www.w3.org/2000/svg" xmlns:xlink="http://www.w3.org/1999/xlink" x="0px" y="0px" width="512px"
	 height="512px" viewBox="0 0 512 512" enable-background="new 0 0 512 512" xml:space="preserve">
<g id="Ecu">
	<path fill="#F1E624" stroke="#010202" stroke-width="3" stroke-miterlimit="10" d="M248.138,129.318c0,0-66.19,32.164-117.887,0
		c0,9.941,0,63.743,0,63.743s5.365,110.979,117.887,178.231l0,0c112.522-67.252,117.44-178.231,117.44-178.231s0-53.801,0-63.743
		C313.883,161.482,248.138,129.318,248.138,129.318z"/>
	<path fill="#010202" d="M142.416,245.028L196.168,142.7c-7.409,0.677-15.232,0.819-23.21,0.104l-38.892,74.039
		C135.875,224.826,138.532,234.413,142.416,245.028z"/>
	<path fill="#010202" d="M148.17,258.647c3.188,7.233,6.936,14.775,11.348,22.479l77.993-148.476
		c-6.66,2.412-16.052,5.33-27.035,7.384L148.17,258.647z"/>
</g>
<g id="Charact">
	<path fill="#010202" d="M330.75,341.75c-12.125-1.125-18.375-6-18.375-7.625c-0.375-8.5-8-42-8.5-44.875s-1.75-11.75-2.375-16.125
		s-19.75-22.625-21.625-25.82s-1.5-9.055-1.25-12.805c16.25-2.75,21,6.625,22.5,8.5c-1.75-1.5-11.125-1-10.5,8.25
		s8.625,7.125,9.375,7.5c1.875,5.625,10,8,12.375,9.375c0.375,1.375,12.459,29.042,12.875,35.792s-0.583,9.084-3.083,16.167
		s0.917,2.833,1.75,1.167s2.25-2.417,2.75-1.584s0.667,3.75-0.417,6.084s1,1.75,1,1.75c0.166-1.083,1.326-0.82,1.326-0.154
		c0,3,1.758,1.07,1.758,0.737s-0.167-4.667,0.083-6.667s1.583-1.333,1.333,0.084c-1.334,11.334,1.75,6.333,2.084,4.417
		c3.834-20.416-1.917-25.001-3.001-27.584c0.166-4.583-3.333-23.417-4.5-25.334s-2.166-5.083-2.083-6.333
		c0.833-0.75,6.417-6.833,7.25-8.75s-0.166-3.833-0.666-5.25c1.417-1.333,4.916-5.583,4.083-6s-1.833-1.75-2.25-2.833
		c1.083-2.667,0-8.333,0-8.333c-10.917-0.75-17.625-19.208-28.75-30.333c-3.917-4-10.667-3-12.583-3.083
		c-2.166-1.167-16.167-28.667-17.084-31s-1.333-4,0.583-2.167s2,0.917,3.917,0c0.417-2.083,5.5-7.167,6-7.583s2.25,0.25,2.5-1
		c0.083-3.833,0.917-4.667,0.917-5.25S290,153,291.75,151.917c1.75,1,4.667,1.083,4.667,1.083c2.25-0.75-2.667-6-3.167-7
		c1.25-2.75,3.75-9.5,3.75-12.75c-7-11-23-12.5-25-12s-6.5,9-6.5,9s-3.5-1.5-6.448-2.25s1.198,5.25,3.948,8
		c-5.25,6.75-3.75,12.75-3.75,12.75c-2.75-0.875-6,0-10.875,5.5c-23.75,3.875-32.875,64.625-41,75.25
		c-2.25,3.25-1.375,7.625-1.625,11.75c-6.375,8.625-22,41.5-22,41.5s-31.5,46.625-35.25,53s-18.25,6-18.25,6
		s-4.008,3.933-1.125,6.875c8.5,5.875,23.25,2.125,24.25,1.875s7.75,1.625,12.125,1.5s3.5-6.75,3.75-8s39.875-57.625,41.125-58
		s30.125,29,33.25,32.625s10.125,10.125,10.25,15.75c0.875,15.125-5.5,14.25-5.5,14.25l-0.25,5.625c0,0,2.75,0,9.625,0
		S265.5,338,265.5,338c0.5-4.5,1.303-3.771,3.75,0.625c3.75,7.5,4.75,2.75,4.625,2.375s-2.5-5.5-3.5-9.125
		c0.5-4.125-1.25-10.25-4-10.125c-5.125,0-9.25-1.75-10.375-5c-10.875-32.125-19-34.875-19.875-35.625
		c2.75-1.5,14.25-13.875,15.5-15S256,271.5,256,271.5c0,1.375,0,7.75,0,7.75c11.5,2.125,15.5-2.25,16.75-3.75s4.875,7,10,14.25
		c3.75,36.125,9.125,46.75,10.5,50.5s-0.25,1.25,1,7.125s6.25,4.5,10.875,4.771s2.875-0.896,4.375-1.396s1.625,1.625,16.25,1.375
		S334.625,341.875,330.75,341.75z M256.917,216.167c-0.25-0.917,8.333-19.583,8.333-19.583c1.417-0.333,8.75,8,9.167,9.25
		S257.167,217.083,256.917,216.167z"/>
</g>
</svg>
